control3min_grf.mot
version=1
nRows=10
nColumns 19
inDegrees=yes
endheader
time	1_ground_force_vx	1_ground_force_vy	1_ground_force_vz	1_ground_force_px	1_ground_force_py	1_ground_force_pz	1_ground_torque_x	1_ground_torque_y	1_ground_torque_z	2_ground_force_vx	2_ground_force_vy	2_ground_force_vz	2_ground_force_px	2_ground_force_py	2_ground_force_pz	2_ground_torque_x	2_ground_torque_y	2_ground_torque_z
            2.502500	            2.200880	            2.702837	            0.372980	           -0.233013	            0.005581	           -0.255695	            0.357633	           -0.210295	           -0.190030	            0.197453	           -1.689798	            9.285771	           -0.232311	            0.006130	           -0.833667	            0.494796	           -1.811743	           -0.402538
            2.503000	            2.016711	            2.704178	            0.052444	           -0.233013	            0.005581	           -0.255695	            0.502835	           -0.155144	           -0.141579	            0.387990	           -2.608356	            8.860053	           -0.232311	            0.006130	           -0.833667	            0.363273	           -1.802832	           -0.383598
            2.503500	            1.604810	            1.441452	            0.231481	           -0.233013	            0.005581	           -0.255695	            0.307997	           -0.062850	           -0.177045	            0.153261	           -2.426560	            9.283163	           -0.232311	            0.006130	           -0.833667	            0.475941	           -1.783721	           -0.327028
            2.504000	            0.689284	            1.619182	            0.784801	           -0.233013	            0.005581	           -0.255695	            0.115486	           -0.174372	           -0.178550	            0.198014	           -1.873109	            9.050474	           -0.232311	            0.006130	           -0.833667	            0.400886	           -1.812216	           -0.364797
            2.504500	            1.147438	            1.259329	            0.644549	           -0.233013	            0.005581	           -0.255695	            0.272013	           -0.276135	           -0.084623	           -0.030109	           -3.532461	            9.373156	           -0.232311	            0.006130	           -0.833667	            0.475926	           -1.792771	           -0.440163
            2.505000	            2.981248	            4.503285	            0.929047	           -0.233013	            0.005581	           -0.255695	            0.670524	           -0.467785	           -0.365524	            0.294619	           -2.611372	            9.610943	           -0.232311	            0.006130	           -0.833667	            0.382066	           -1.802831	           -0.364756
            2.505500	            5.868141	            9.912207	            0.853356	           -0.233013	            0.005581	           -0.255695	            1.214177	           -0.805701	           -0.865704	            0.291755	           -1.873105	            9.144290	           -0.232311	            0.006130	           -0.833667	            0.513656	           -1.812280	           -0.232894
            2.506000	           10.636858	           14.776959	            1.641944	           -0.321432	            0.006111	           -0.382905	            0.047025	            0.065328	            0.007259	           -0.034947	           -2.241917	            8.955403	           -0.232311	            0.006130	           -0.833667	            0.457250	           -1.812080	           -0.345971
            2.506500	           15.590678	           16.394998	            2.874722	           -0.325793	            0.006118	           -0.384709	            0.207260	            0.217953	            0.038216	            0.249537	           -3.162145	            9.092782	           -0.232311	            0.006130	           -0.833667	            0.419637	           -1.802696	           -0.364772
            2.507000	           18.480655	           18.014211	            3.745773	           -0.332782	            0.006115	           -0.384363	            0.303234	            0.295581	            0.061461	            0.060144	           -2.610377	            9.094833	           -0.232311	            0.006130	           -0.833667	            0.419441	           -1.746047	           -0.345719
